<?xml version="1.0" encoding="utf-8"?>
<svg version="1.1" xmlns:xlink="http://www.w3.org/1999/xlink" width="12px" height="12px" viewBox="550 566  12 12" xmlns="http://www.w3.org/2000/svg">
  <path d="M 556 566  C 559.36 566  562 568.64  562 572  C 562 575.36  559.36 578  556 578  C 552.64 578  550 575.36  550 572  C 550 568.64  552.64 566  556 566  Z " fill-rule="nonzero" fill="#f0f0f0" stroke="none" />
  <path d="M 556 566.5  C 559.08 566.5  561.5 568.92  561.5 572  C 561.5 575.08  559.08 577.5  556 577.5  C 552.92 577.5  550.5 575.08  550.5 572  C 550.5 568.92  552.92 566.5  556 566.5  Z " stroke-width="1" stroke="#797979" fill="none" />
  <path d="M 556 575  C 554.32 575  553 573.68  553 572  C 553 570.32  554.32 569  556 569  C 557.68 569  559 570.32  559 572  C 559 573.68  557.68 575  556 575  " fill-rule="nonzero" fill="#797979" stroke="none" />
</svg>