<svg xmlns="http://www.w3.org/2000/svg" xmlns:xlink="http://www.w3.org/1999/xlink" width="12" height="12" version="1.1" viewBox="632 566 12 12"><path fill="#f0f0f0" fill-rule="nonzero" stroke="none" d="M 638 566 C 641.36 566 644 568.64 644 572 C 644 575.36 641.36 578 638 578 C 634.64 578 632 575.36 632 572 C 632 568.64 634.64 566 638 566 Z"/><path fill="none" stroke="#797979" stroke-width="1" d="M 638 566.5 C 641.08 566.5 643.5 568.92 643.5 572 C 643.5 575.08 641.08 577.5 638 577.5 C 634.92 577.5 632.5 575.08 632.5 572 C 632.5 568.92 634.92 566.5 638 566.5 Z"/><path fill="#797979" fill-rule="nonzero" stroke="none" d="M 638 575 C 636.32 575 635 573.68 635 572 C 635 570.32 636.32 569 638 569 C 639.68 569 641 570.32 641 572 C 641 573.68 639.68 575 638 575"/></svg>