<svg xmlns="http://www.w3.org/2000/svg" xmlns:xlink="http://www.w3.org/1999/xlink" width="12" height="12" version="1.1" viewBox="550 622 12 12"><path fill="#fff" fill-rule="nonzero" stroke="none" d="M 556 622 C 559.36 622 562 624.64 562 628 C 562 631.36 559.36 634 556 634 C 552.64 634 550 631.36 550 628 C 550 624.64 552.64 622 556 622 Z"/><path fill="none" stroke="#797979" stroke-width="1" d="M 556 622.5 C 559.08 622.5 561.5 624.92 561.5 628 C 561.5 631.08 559.08 633.5 556 633.5 C 552.92 633.5 550.5 631.08 550.5 628 C 550.5 624.92 552.92 622.5 556 622.5 Z"/><path fill="#797979" fill-rule="nonzero" stroke="none" d="M 556 631 C 554.32 631 553 629.68 553 628 C 553 626.32 554.32 625 556 625 C 557.68 625 559 626.32 559 628 C 559 629.68 557.68 631 556 631"/></svg>