<svg xmlns="http://www.w3.org/2000/svg" xmlns:xlink="http://www.w3.org/1999/xlink" width="12" height="12" version="1.1" viewBox="632 622 12 12"><path fill="#f0f0f0" fill-rule="nonzero" stroke="none" d="M 638 622 C 641.36 622 644 624.64 644 628 C 644 631.36 641.36 634 638 634 C 634.64 634 632 631.36 632 628 C 632 624.64 634.64 622 638 622 Z"/><path fill="none" stroke="#797979" stroke-width="1" d="M 638 622.5 C 641.08 622.5 643.5 624.92 643.5 628 C 643.5 631.08 641.08 633.5 638 633.5 C 634.92 633.5 632.5 631.08 632.5 628 C 632.5 624.92 634.92 622.5 638 622.5 Z"/><path fill="#797979" fill-rule="nonzero" stroke="none" d="M 638 631 C 636.32 631 635 629.68 635 628 C 635 626.32 636.32 625 638 625 C 639.68 625 641 626.32 641 628 C 641 629.68 639.68 631 638 631"/></svg>